<svg width="88" height="87" viewBox="0 0 88 87" fill="none" xmlns="http://www.w3.org/2000/svg">
<ellipse cx="44" cy="43.5" rx="44" ry="43.5" fill="#EDEDED"/>
<path d="M31.2018 19.5777H36.1678C37.1836 19.6153 37.8044 19.8787 38.0301 20.3677C38.2182 20.7252 38.3123 21.2519 38.3123 21.9478V28.1554C38.3123 28.7573 38.0489 29.3311 37.5222 29.8766C35.9421 31.5131 33.5719 32.3314 30.4117 32.3314C27.6089 32.3314 25.173 31.278 23.1038 29.1712C21.0346 27.0456 20 24.4873 20 21.4964C20 18.5055 21.0534 16.0131 23.1602 14.0191C25.267 12.0064 27.75 11 30.6093 11C32.8289 11 34.9263 11.7336 36.9014 13.2009C37.4093 13.5771 37.6633 14.0003 37.6633 14.4706C37.6633 14.922 37.447 15.4487 37.0143 16.0507C36.2807 17.0477 35.6129 17.5461 35.011 17.5461C34.6536 17.5461 34.0798 17.2922 33.2898 16.7843C32.4997 16.2576 31.5592 15.9943 30.4682 15.9943C29.0386 15.9943 27.7688 16.5021 26.659 17.5179C25.5492 18.5149 24.9943 19.8316 24.9943 21.4682C24.9943 23.0859 25.5586 24.4685 26.6872 25.6159C27.8159 26.7446 29.095 27.3089 30.5246 27.3089C31.5592 27.3089 32.4903 27.1396 33.318 26.801V23.7255H31.0889C30.5058 23.7255 30.092 23.6502 29.8474 23.4997C29.6029 23.3492 29.443 23.1329 29.3677 22.8508C29.2925 22.5498 29.2549 22.1548 29.2549 21.6657C29.2549 21.1578 29.2925 20.7534 29.3677 20.4524C29.4618 20.1514 29.6217 19.9445 29.8474 19.8316C30.186 19.6623 30.6375 19.5777 31.2018 19.5777Z" fill="#446DF6"/>
<path d="M54.8996 22.8508C54.8996 23.9982 54.608 24.8541 54.0249 25.4184C53.4605 25.9639 52.8304 26.2367 52.1344 26.2367H45.4472C45.4472 26.7634 45.7576 27.2054 46.3783 27.5629C46.9991 27.9203 47.6198 28.099 48.2406 28.099C49.3316 28.099 50.1875 27.9861 50.8082 27.7604L51.1186 27.6475C51.5701 27.4406 51.9463 27.3371 52.2473 27.3371C52.8492 27.3371 53.3665 27.7604 53.7991 28.6068C54.0437 29.1147 54.166 29.5474 54.166 29.9048C54.166 31.5789 52.1626 32.416 48.1559 32.416C46.7639 32.416 45.5224 32.1809 44.4314 31.7106C43.3592 31.2215 42.5221 30.582 41.9202 29.7919C40.7351 28.2683 40.1425 26.5659 40.1425 24.6848C40.1425 22.3147 40.9044 20.4242 42.4281 19.0134C43.9705 17.5838 45.8892 16.8689 48.1841 16.8689C50.7988 16.8689 52.7175 17.7907 53.9402 19.6341C54.5798 20.6123 54.8996 21.6845 54.8996 22.8508ZM48.946 23.669C49.6608 23.669 50.0182 23.3681 50.0182 22.7661C50.0182 22.3335 49.8489 21.9855 49.5103 21.7221C49.1905 21.4588 48.7202 21.3271 48.0995 21.3271C47.4975 21.3271 46.8956 21.581 46.2937 22.0889C45.6917 22.578 45.3907 23.1047 45.3907 23.669H48.946Z" fill="#446DF6"/>
<path d="M65.099 22.1736L63.265 22.0607V25.9545C63.265 26.4624 63.3402 26.8292 63.4907 27.055C63.66 27.2807 63.961 27.3936 64.3936 27.3936C64.8451 27.3936 65.1837 27.4124 65.4094 27.45C65.6539 27.4688 65.9079 27.5534 66.1712 27.7039C66.6039 27.9485 66.8202 28.5786 66.8202 29.5944C66.8202 30.7795 66.5569 31.5037 66.0302 31.7671C65.748 31.8987 65.4941 31.9834 65.2683 32.021C65.0614 32.0398 64.751 32.0492 64.3372 32.0492C62.3809 32.0492 60.8948 31.6072 59.8791 30.7231C58.8633 29.839 58.3554 28.3435 58.3554 26.2367V22.0607C57.998 22.1171 57.6124 22.1454 57.1985 22.1454C56.7847 22.1454 56.4367 21.9855 56.1545 21.6657C55.8912 21.3459 55.7595 20.8004 55.7595 20.0292C55.7595 19.2579 55.8065 18.703 55.9006 18.3644C55.9946 18.007 56.1263 17.7531 56.2956 17.6026C56.5966 17.358 56.9728 17.2358 57.4243 17.2358L58.3554 17.3486V14.4424C58.3554 14.0097 58.3648 13.6899 58.3836 13.483C58.4212 13.2761 58.5153 13.0504 58.6658 12.8058C58.9103 12.3356 59.6345 12.1004 60.8384 12.1004C62.1175 12.1004 62.8794 12.4484 63.1239 13.1444C63.218 13.4454 63.265 13.9251 63.265 14.5834V17.3486C64.0927 17.2734 64.7134 17.2358 65.1272 17.2358C65.5599 17.2358 65.8797 17.2546 66.0866 17.2922C66.3123 17.311 66.5663 17.3957 66.8484 17.5461C67.3375 17.7907 67.582 18.5149 67.582 19.7188C67.582 20.9039 67.3281 21.6281 66.8202 21.8914C66.538 22.0231 66.2841 22.1077 66.0584 22.1454C65.8515 22.1642 65.5317 22.1736 65.099 22.1736Z" fill="#446DF6"/>
<path d="M33.114 44.2415C34.3743 44.693 35.0045 45.2949 35.0045 46.0473C35.0045 46.2919 34.8916 46.7527 34.6659 47.4299L29.2484 63.0899C29.2108 63.2215 29.1449 63.3814 29.0509 63.5695C28.9568 63.7576 28.7029 64.0116 28.2891 64.3314C27.894 64.6323 27.4144 64.7828 26.85 64.7828C26.3045 64.7828 25.8248 64.6323 25.411 64.3314C25.016 64.0116 24.7526 63.7012 24.621 63.4002L21.3197 53.6657C19.2317 59.8356 18.1689 62.977 18.1313 63.0899C18.0936 63.2027 18.009 63.3626 17.8773 63.5695C17.7456 63.7765 17.5951 63.9646 17.4259 64.1339C16.9932 64.5665 16.4759 64.7828 15.874 64.7828C15.272 64.7828 14.7735 64.6418 14.3785 64.3596C14.0023 64.0774 13.7484 63.7953 13.6167 63.5131L13.4192 63.0899L7.97346 47.4299C7.76654 46.8092 7.66309 46.3483 7.66309 46.0473C7.66309 45.2949 8.29324 44.7024 9.55356 44.2697C10.0991 44.0816 10.5882 43.9876 11.0208 43.9876C11.4723 43.9876 11.8109 44.1381 12.0366 44.439C12.2811 44.74 12.4974 45.2009 12.6855 45.8216L15.7893 55.2458L18.8649 45.9627C19.1282 45.1726 19.6079 44.6271 20.3039 44.3262C20.6049 44.1945 20.9905 44.1286 21.4608 44.1286C21.9498 44.1286 22.4013 44.2885 22.8151 44.6083C23.229 44.9093 23.4923 45.2103 23.6052 45.5112L26.85 55.3022L29.9538 45.8216C30.1043 45.389 30.2266 45.0692 30.3206 44.8623C30.4147 44.6553 30.584 44.4578 30.8285 44.2697C31.0918 44.0628 31.4116 43.9593 31.7878 43.9593C32.1641 43.9593 32.6061 44.0534 33.114 44.2415Z" fill="#446DF6"/>
<path d="M44.223 51.5213C44.3359 50.4679 45.0789 49.9412 46.4521 49.9412C47.1857 49.9412 47.7312 49.9976 48.0886 50.1105C48.446 50.2233 48.6905 50.4208 48.8222 50.703C48.9727 50.9852 49.0573 51.2391 49.0762 51.4648C49.1138 51.6718 49.1326 51.9915 49.1326 52.4242V62.2998C49.1326 62.7325 49.1138 63.0617 49.0762 63.2874C49.0573 63.4943 48.9821 63.7388 48.8504 64.021C48.5871 64.5101 47.9381 64.7546 46.9035 64.7546C45.8877 64.7546 45.2012 64.6323 44.8438 64.3878C44.5052 64.1245 44.3076 63.7482 44.2512 63.2592C43.5552 64.2561 42.3889 64.7546 40.7524 64.7546C39.1347 64.7546 37.6298 64.0116 36.2378 62.5255C34.8458 61.0395 34.1498 59.3183 34.1498 57.362C34.1498 55.3869 34.8458 53.6657 36.2378 52.1985C37.6486 50.7124 39.1911 49.9694 40.8653 49.9694C41.5048 49.9694 42.088 50.0822 42.6147 50.308C43.1414 50.5337 43.5082 50.75 43.7151 50.9569C43.922 51.145 44.0913 51.3332 44.223 51.5213ZM39.0877 57.3902C39.0877 58.011 39.3322 58.5753 39.8213 59.0832C40.3104 59.5723 40.9029 59.8168 41.5989 59.8168C42.2949 59.8168 42.8686 59.5629 43.3201 59.055C43.7903 58.5471 44.0255 57.9922 44.0255 57.3902C44.0255 56.7695 43.7998 56.1957 43.3483 55.669C42.9157 55.1423 42.3231 54.879 41.5707 54.879C40.8371 54.879 40.2351 55.1423 39.7648 55.669C39.3134 56.1957 39.0877 56.7695 39.0877 57.3902Z" fill="#446DF6"/>
<path d="M51.4944 63.4849C51.137 63.2592 50.9583 62.9018 50.9583 62.4127C50.9583 61.9236 51.3157 61.1806 52.0305 60.1836C52.2374 59.8638 52.5666 59.7039 53.018 59.7039C53.4883 59.7039 54.1185 59.9391 54.9085 60.4093C55.6986 60.8608 56.4134 61.0865 57.0529 61.0865C58.2004 61.0865 58.7741 60.8608 58.7741 60.4093C58.7741 60.0519 58.144 59.7886 56.8837 59.6193C55.6986 59.45 54.5229 59.0079 53.3566 58.2931C52.8111 57.9545 52.3597 57.4278 52.0023 56.713C51.6449 55.9794 51.4662 55.1141 51.4662 54.1171C51.4662 51.145 53.5071 49.659 57.5891 49.659C58.9246 49.659 60.2978 49.9788 61.7086 50.6183C62.367 50.9193 62.6962 51.2955 62.6962 51.747C62.6962 52.1985 62.4893 52.7534 62.0754 53.4117C61.6616 54.0701 61.2383 54.3993 60.8057 54.3993C60.58 54.3993 60.1567 54.2582 59.536 53.9761C58.934 53.6939 58.2756 53.5528 57.5608 53.5528C56.451 53.5528 55.8961 53.7597 55.8961 54.1736C55.8961 54.7379 56.5357 55.1047 57.8148 55.274C59.0563 55.4057 60.2602 55.7631 61.4264 56.3462C61.972 56.6096 62.4234 57.0704 62.7808 57.7288C63.157 58.3684 63.3451 59.1772 63.3451 60.1554C63.3451 61.1335 63.157 61.9706 62.7808 62.6666C62.4234 63.3438 61.9155 63.8517 61.2571 64.1903C60.0533 64.7734 58.539 65.065 56.7144 65.065C54.9085 65.065 53.1685 64.5383 51.4944 63.4849Z" fill="#446DF6"/>
<path d="M73.4256 49.9976C75.3066 49.9976 76.8679 50.7124 78.1094 52.142C79.3697 53.5716 79.9999 55.321 79.9999 57.3902V62.3562C79.9999 62.7889 79.9811 63.1181 79.9435 63.3438C79.9247 63.5507 79.84 63.7953 79.6895 64.0774C79.445 64.5665 78.7208 64.811 77.5169 64.811C76.3694 64.811 75.6546 64.5665 75.3725 64.0774C75.222 63.7953 75.1279 63.5413 75.0903 63.3156C75.0715 63.0899 75.0621 62.7513 75.0621 62.2998V57.362C75.0621 56.5908 74.8458 55.9888 74.4131 55.5562C73.9805 55.1235 73.4256 54.9072 72.7484 54.9072C72.09 54.9072 71.5069 55.1141 70.999 55.528C70.4911 55.923 70.1995 56.3744 70.1243 56.8823V62.3562C70.1243 62.7889 70.1055 63.1181 70.0678 63.3438C70.049 63.5507 69.9644 63.7953 69.8139 64.0774C69.5694 64.5665 68.8452 64.811 67.6413 64.811C66.4562 64.811 65.732 64.5571 65.4686 64.0492C65.3369 63.7671 65.2523 63.5225 65.2147 63.3156C65.1959 63.1087 65.1865 62.7795 65.1865 62.328V45.4548C65.1865 45.0222 65.1959 44.7024 65.2147 44.4955C65.2523 44.2697 65.3369 44.0252 65.4686 43.7618C65.732 43.2539 66.4656 43 67.6695 43C68.8546 43 69.5694 43.2539 69.8139 43.7618C69.9644 44.044 70.049 44.2979 70.0678 44.5237C70.1055 44.7306 70.1243 45.0504 70.1243 45.483V51.7188C71.0648 50.5713 72.1652 49.9976 73.4256 49.9976Z" fill="#446DF6"/>
</svg>
