<svg aria-hidden="true" style="position: absolute; width: 0; height: 0; overflow: hidden;" version="1.1" xmlns="http://www.w3.org/2000/svg" xmlns:xlink="http://www.w3.org/1999/xlink">
<defs>
<symbol id="arrow-down" viewBox="0 0 32 32">
<path d="M14.586 29.414c0.781 0.781 2.047 0.781 2.829 0l12.728-12.728c0.781-0.781 0.781-2.047 0-2.828s-2.047-0.781-2.828 0l-11.314 11.314-11.314-11.314c-0.781-0.781-2.047-0.781-2.828 0s-0.781 2.047 0 2.828l12.728 12.728zM14 1.333v26.667h4v-26.667h-4z"></path>
</symbol>
<symbol id="call" viewBox="0 0 32 32">
<path d="M5.742 14.113c0.456-0.309 1.079-0.197 1.391 0.257 3.46 5.023 9.78 10.677 13.802 12.348 1.627 0.756 2.837 0.802 3.739 0.156 0.703-0.425 2.699-2.408 2.663-3.439-0.012-0.121-0.151-0.349-0.387-0.59-0.768-0.786-3.345-2.736-3.884-2.939-0.425-0.091-0.868 0.168-1.543 0.593l-0.341 0.212c-0.473 0.284-1.088 0.133-1.373-0.341-0.284-0.472-0.132-1.086 0.341-1.371l0.308-0.191c0.747-0.47 1.777-1.113 3.073-0.843 1.021 0.212 4.233 2.853 4.848 3.481 0.579 0.592 0.899 1.222 0.953 1.871 0.087 2.456-3.203 5.023-3.58 5.239-0.717 0.517-1.559 0.778-2.505 0.778-0.941 0-1.987-0.259-3.119-0.786-4.353-1.807-10.938-7.667-14.642-13.044-0.313-0.454-0.199-1.077 0.256-1.39zM8.404 2.668l0.236 0.004c0.688 0.057 1.317 0.377 1.908 0.953 0.629 0.614 3.272 3.829 3.484 4.846 0.228 1.094-0.264 1.948-0.623 2.572-0.353 0.614-0.476 0.877-0.355 1.209 0.892 2.181 2.271 3.965 4.085 5.26 0.449 0.323 0.552 0.946 0.231 1.395-0.195 0.272-0.501 0.418-0.813 0.418-0.203 0-0.405-0.061-0.581-0.187-2.125-1.521-3.736-3.595-4.788-6.169-0.463-1.273 0.087-2.227 0.488-2.924 0.301-0.522 0.468-0.834 0.397-1.167-0.187-0.481-2.136-3.054-2.923-3.821-0.243-0.239-0.471-0.378-0.64-0.392-0.955-0.023-2.907 1.864-3.349 2.599-0.687 0.944-0.639 2.152 0.099 3.771 0.228 0.502 0.007 1.094-0.496 1.323-0.504 0.228-1.095 0.008-1.324-0.496-1.049-2.302-1.029-4.223 0.059-5.706 0.405-0.678 2.953-3.627 5.141-3.485l-0.236-0.004z"></path>
</symbol>
<symbol id="edit" viewBox="0 0 32 32">
<path d="M26.961 25.9c0.573 0 1.039 0.47 1.039 1.050s-0.465 1.050-1.039 1.050h-8.833c-0.575 0-1.039-0.47-1.039-1.050s0.464-1.050 1.039-1.050h8.833zM16.14 5.385c1.305-1.686 3.59-1.851 5.431-0.393l1.925 1.526c0.841 0.666 1.415 1.543 1.616 2.47 0.224 1.035-0.024 2.085-0.697 2.953l-11.481 14.806c-0.58 0.749-1.453 1.186-2.396 1.198l-4.43 0.056c-0.496 0-0.916-0.336-1.025-0.812l-1.003-4.359c-0.213-0.928-0.003-1.89 0.579-2.639l1.507-1.945c0.353-0.456 1.007-0.538 1.458-0.178 0.452 0.357 0.531 1.018 0.176 1.474l-1.507 1.945c-0.191 0.246-0.26 0.561-0.19 0.867l0.813 3.536 3.594-0.045c0.309-0.004 0.596-0.147 0.787-0.393l11.481-14.806c0.294-0.378 0.395-0.784 0.303-1.21-0.098-0.449-0.406-0.899-0.869-1.264l-1.925-1.527c-0.745-0.588-1.797-0.89-2.514 0.038l-1.517 1.954 2.407 1.952c0.447 0.361 0.519 1.023 0.161 1.474-0.205 0.26-0.507 0.395-0.812 0.395-0.227 0-0.457-0.076-0.648-0.231l-2.389-1.936-3.928 5.066c-0.355 0.456-1.007 0.539-1.46 0.178-0.45-0.357-0.529-1.018-0.176-1.474l6.726-8.674z"></path>
</symbol>
<symbol id="menu" viewBox="0 0 32 32">
<path stroke-linejoin="round" stroke-linecap="round" stroke-miterlimit="4" stroke-width="2.6667" d="M4 16h24"></path>
<path stroke-linejoin="round" stroke-linecap="round" stroke-miterlimit="4" stroke-width="2.6667" d="M4 8h24"></path>
<path stroke-linejoin="round" stroke-linecap="round" stroke-miterlimit="4" stroke-width="2.6667" d="M4 24h24"></path>
</symbol>
<symbol id="message" viewBox="0 0 32 32">
<path d="M21.596 4c4.268 0.013 7.724 3.495 7.737 7.794v1.948l-0.009 0.129c-0.062 0.464-0.457 0.821-0.935 0.821l-0.012-0.024-0.149-0.012c-0.195-0.031-0.377-0.124-0.519-0.267-0.177-0.178-0.276-0.42-0.276-0.672v-1.925c-0.032-3.235-2.627-5.849-5.838-5.881h-11.193c-3.211 0.032-5.806 2.647-5.838 5.881v8.412c0.032 3.235 2.627 5.849 5.838 5.881h11.193c3.211-0.032 5.806-2.646 5.838-5.881 0.054-0.487 0.463-0.856 0.949-0.856s0.895 0.369 0.949 0.856c-0.013 4.299-3.469 7.781-7.737 7.794h-11.193c-4.27-0.007-7.731-3.492-7.737-7.794v-8.412c0-4.305 3.464-7.794 7.737-7.794h11.193zM8.393 11.183c0.248-0.027 0.497 0.048 0.69 0.208l5.543 4.42c0.692 0.547 1.666 0.547 2.359 0l5.484-4.42h0.012l0.116-0.080c0.398-0.233 0.916-0.147 1.217 0.222 0.158 0.198 0.23 0.451 0.201 0.704s-0.157 0.482-0.355 0.639l-5.484 4.432c-1.394 1.13-3.382 1.13-4.777 0l-5.496-4.432-0.101-0.097c-0.31-0.344-0.335-0.871-0.040-1.245 0.155-0.197 0.382-0.323 0.631-0.35z"></path>
</symbol>
<symbol id="x" viewBox="0 0 32 32">
<path d="M31.708 25.708c-0-0-0-0-0-0l-9.708-9.708 9.708-9.708c0-0 0-0 0-0 0.105-0.105 0.18-0.227 0.229-0.357 0.133-0.356 0.057-0.771-0.229-1.057l-4.586-4.586c-0.286-0.286-0.702-0.361-1.057-0.229-0.13 0.048-0.252 0.124-0.357 0.228 0 0-0 0-0 0l-9.708 9.708-9.708-9.708c-0-0-0-0-0-0-0.105-0.104-0.227-0.18-0.357-0.228-0.356-0.133-0.771-0.057-1.057 0.229l-4.586 4.586c-0.286 0.286-0.361 0.702-0.229 1.057 0.049 0.13 0.124 0.252 0.229 0.357 0 0 0 0 0 0l9.708 9.708-9.708 9.708c-0 0-0 0-0 0-0.104 0.105-0.18 0.227-0.229 0.357-0.133 0.355-0.057 0.771 0.229 1.057l4.586 4.586c0.286 0.286 0.702 0.361 1.057 0.229 0.13-0.049 0.252-0.124 0.357-0.229 0-0 0-0 0-0l9.708-9.708 9.708 9.708c0 0 0 0 0 0 0.105 0.105 0.227 0.18 0.357 0.229 0.356 0.133 0.771 0.057 1.057-0.229l4.586-4.586c0.286-0.286 0.362-0.702 0.229-1.057-0.049-0.13-0.124-0.252-0.229-0.357z"></path>
</symbol>
<symbol id="left" viewBox="0 0 32 32">
<path fill="#f7f8fd" style="fill: var(--color1, #f7f8fd)" d="M16 0c8.837 0 16 7.163 16 16s-7.163 16-16 16c-8.837 0-16-7.163-16-16s7.163-16 16-16z"></path>
<path fill="none" stroke="#72727e" style="stroke: var(--color2, #72727e)" stroke-linejoin="round" stroke-linecap="round" stroke-miterlimit="4" stroke-width="1.28" d="M16.96 12.8l-3.2 3.2 3.2 3.2"></path>
</symbol>
<symbol id="arrow" viewBox="0 0 136 32">
<path d="M134.748 17.414c0.78-0.781 0.78-2.047 0-2.828l-12.728-12.728c-0.781-0.781-2.047-0.781-2.828 0s-0.781 2.047 0 2.828l11.314 11.314-11.314 11.314c-0.781 0.781-0.781 2.047 0 2.828s2.047 0.781 2.828 0l12.728-12.728zM0 18h133.333v-4h-133.333v4z"></path>
</symbol>
<symbol id="calendar" viewBox="0 0 32 32">
<path d="M21.055 2.668c0.505 0.032 0.895 0.464 0.881 0.979v1.38c4.012 0.389 6.064 2.606 6.064 6.593v11.027c0 4.434-2.528 6.687-7.501 6.687h-8.997c-4.974 0-7.501-2.253-7.501-6.687v-11.027c0-2.654 0.904-4.552 2.759-5.661l0.13-0.074c0.269-0.125 0.584-0.114 0.846 0.038 0.306 0.178 0.486 0.516 0.466 0.874s-0.238 0.673-0.562 0.813c-1.229 0.731-1.809 2.005-1.809 4.010v0.354h16.916c0.506 0 0.916 0.417 0.916 0.932s-0.41 0.932-0.916 0.932h-16.916v8.81c0 3.385 1.646 4.788 5.67 4.812h8.997c3.965 0 5.658-1.439 5.658-4.824v-11.027c0-2.948-1.287-4.375-4.22-4.717v0.896c-0.068 0.478-0.479 0.826-0.953 0.808s-0.858-0.398-0.89-0.879v-4.151l0.017-0.147c0.038-0.193 0.135-0.371 0.28-0.506 0.181-0.168 0.421-0.256 0.666-0.243zM21.583 21.596l0.148 0.009c0.253 0.032 0.491 0.148 0.674 0.332 0.22 0.221 0.344 0.523 0.344 0.838 0 0.651-0.519 1.179-1.159 1.179s-1.159-0.528-1.159-1.179c0-0.651 0.519-1.179 1.159-1.179l-0.006-0.001zM16.023 21.597l0.145 0.009c0.572 0.073 1.014 0.569 1.014 1.17 0 0.651-0.519 1.179-1.159 1.179s-1.159-0.528-1.159-1.179c0-0.651 0.519-1.179 1.159-1.179zM10.464 21.596l0.147 0.009c0.253 0.032 0.491 0.148 0.674 0.332 0.22 0.221 0.344 0.523 0.344 0.838 0 0.651-0.519 1.179-1.159 1.179s-1.159-0.528-1.159-1.179c0-0.651 0.519-1.179 1.159-1.179l-0.006-0.001zM21.583 16.82l0.148 0.009c0.253 0.032 0.491 0.148 0.674 0.332 0.22 0.221 0.344 0.523 0.344 0.838 0 0.651-0.519 1.179-1.159 1.179s-1.159-0.528-1.159-1.179 0.519-1.179 1.159-1.179l-0.006-0zM16.023 16.82l0.145 0.009c0.572 0.073 1.014 0.569 1.014 1.17 0 0.651-0.519 1.179-1.159 1.179s-1.159-0.528-1.159-1.179c0-0.651 0.519-1.179 1.159-1.179zM10.464 16.82l0.147 0.009c0.253 0.032 0.491 0.148 0.674 0.332 0.22 0.221 0.344 0.523 0.344 0.838 0 0.651-0.519 1.179-1.159 1.179s-1.159-0.528-1.159-1.179 0.519-1.179 1.159-1.179l-0.006-0zM10.986 2.809c0.472 0 0.869 0.361 0.922 0.838v1.285h5.241c0.506 0 0.916 0.417 0.916 0.932s-0.41 0.932-0.916 0.932h-5.264v0.932c0 0.249-0.098 0.488-0.272 0.663s-0.41 0.272-0.655 0.269l-0.134-0.013c-0.436-0.077-0.765-0.466-0.759-0.93v-4.069l0.026-0.139c0.107-0.406 0.471-0.699 0.896-0.699z"></path>
</symbol>
<symbol id="chat" viewBox="0 0 32 32">
<path d="M16.009 2.667c2.157 0 4.306 0.532 6.215 1.539 6.5 3.43 9 11.509 5.573 18.011-2.338 4.434-6.941 7.117-11.803 7.117-0.95 0-1.909-0.102-2.864-0.314-0.538-0.12-0.877-0.653-0.758-1.191s0.65-0.875 1.192-0.759c4.966 1.104 10.092-1.279 12.467-5.785 2.914-5.528 0.789-12.398-4.738-15.313-1.623-0.856-3.45-1.309-5.285-1.309-6.261 0-11.345 5.085-11.345 11.335-0.002 1.821 0.441 3.633 1.283 5.243l0.256 0.5c0.314 0.587 0.383 1.317 0.18 1.977-0.281 0.74-0.514 1.46-0.707 2.176 0.749-0.226 1.664-0.558 2.325-0.799l0.271-0.098c0.513-0.191 1.090 0.080 1.278 0.599 0.188 0.518-0.081 1.091-0.599 1.278l-0.268 0.098c-0.989 0.358-2.341 0.85-3.255 1.055-0.077 0.016-0.161 0.027-0.237 0.025-0.613 0-0.986-0.248-1.192-0.457-0.316-0.321-0.466-0.77-0.449-1.337 0.002-0.065 0.011-0.132 0.026-0.196 0.237-1.010 0.546-2.018 0.919-2.994 0.027-0.095 0.011-0.268-0.066-0.412l-0.257-0.499c-0.985-1.886-1.508-4.021-1.505-6.161 0-7.351 5.979-13.33 13.327-13.33h0.015zM15.994 14.413c0.875 0 1.585 0.712 1.585 1.586s-0.71 1.586-1.585 1.586-1.585-0.712-1.585-1.586c0-0.874 0.71-1.586 1.585-1.586zM21.865 14.413c0.875 0 1.585 0.712 1.585 1.586s-0.71 1.586-1.585 1.586-1.585-0.712-1.585-1.586c0-0.874 0.71-1.586 1.585-1.586zM10.123 14.413c0.875 0 1.585 0.711 1.585 1.586 0 0.874-0.71 1.585-1.585 1.585s-1.585-0.711-1.585-1.585c0-0.875 0.71-1.586 1.585-1.586z"></path>
</symbol>
<symbol id="document" viewBox="0 0 32 32">
<path d="M21.138 2.667c4.284 0 6.851 2.602 6.862 6.946v12.774c0 4.344-2.554 6.946-6.851 6.946h-3.808c-0.488-0.055-0.858-0.473-0.858-0.971s0.37-0.917 0.858-0.971h3.797c3.274 0 4.923-1.684 4.923-5.004v-12.774c0-3.32-1.649-5.004-4.923-5.004h-10.287c-3.274 0-4.935 1.684-4.935 5.004v12.774c0 3.32 1.66 5.004 4.935 5.004 0.488 0.055 0.858 0.473 0.858 0.971s-0.37 0.917-0.858 0.971c-4.284 0-6.851-2.602-6.851-6.946v-12.774c0-4.356 2.566-6.946 6.851-6.946h10.287zM20.79 20.68c0.526 0 0.952 0.432 0.952 0.965s-0.426 0.965-0.952 0.965h-9.614c-0.526 0-0.952-0.432-0.952-0.965s0.426-0.965 0.952-0.965h9.614zM20.79 15.029c0.367-0.041 0.726 0.135 0.922 0.452s0.196 0.721 0 1.038c-0.196 0.317-0.555 0.493-0.922 0.452h-9.614c-0.488-0.055-0.858-0.473-0.858-0.971s0.37-0.917 0.858-0.971h9.614zM14.845 9.389c0.488 0.055 0.858 0.473 0.858 0.971s-0.37 0.917-0.858 0.971h-3.658c-0.488-0.055-0.858-0.473-0.858-0.971s0.37-0.917 0.858-0.971h3.658z"></path>
</symbol>
<symbol id="download" viewBox="0 0 32 32">
<path d="M23.404 9.597c3.269 0 5.929 2.765 5.929 6.164v6.756c0 3.39-2.653 6.15-5.916 6.15h-10.152c-0.567 0-1.025-0.48-1.025-1.067 0-0.59 0.459-1.069 1.025-1.069h10.152c2.129 0 3.863-1.801 3.863-4.014v-6.756c0-2.222-1.739-4.029-3.876-4.029h-1.241c-0.567 0-1.025-0.477-1.025-1.067 0-0.589 0.459-1.067 1.025-1.067h1.241zM9.837 9.598c0.567 0 1.027 0.478 1.027 1.067s-0.46 1.067-1.027 1.067h-1.255c-2.129 0-3.863 1.802-3.863 4.014v6.756c0 2.222 1.739 4.029 3.876 4.029 0.567 0 1.027 0.478 1.027 1.067s-0.46 1.067-1.027 1.067c-3.269 0-5.929-2.765-5.929-6.164v-6.756c0-3.39 2.653-6.149 5.916-6.149h1.255zM16 3.333c0.567 0 1.028 0.458 1.028 1.022v15.94c0 0.414-0.251 0.787-0.636 0.945-0.384 0.158-0.827 0.069-1.12-0.223l-3.877-3.877c-0.199-0.199-0.299-0.46-0.299-0.722s0.1-0.524 0.301-0.723c0.403-0.398 1.052-0.397 1.452 0.003l2.124 2.123v-13.466c0-0.564 0.46-1.022 1.027-1.022zM19.148 15.7c0.399-0.401 1.048-0.405 1.452-0.008 0.404 0.395 0.407 1.041 0.008 1.445l-0.971 0.978c-0.397 0.401-1.048 0.405-1.451 0.007-0.204-0.199-0.305-0.462-0.305-0.726 0-0.259 0.099-0.519 0.297-0.719l0.969-0.976z"></path>
</symbol>
<symbol id="filter" viewBox="0 0 32 32">
<path d="M24.568 18.659c0.358 0 0.715 0.040 1.064 0.118 0.602 0.134 0.981 0.727 0.843 1.319-0.139 0.593-0.738 0.968-1.338 0.831-1.55-0.35-3.1 0.869-3.1 2.436 0 1.377 1.134 2.498 2.53 2.498 1.395 0 2.53-1.121 2.53-2.498 0-0.141-0.012-0.281-0.034-0.415-0.103-0.602 0.31-1.169 0.918-1.271 0.607-0.1 1.185 0.306 1.286 0.908 0.043 0.253 0.066 0.513 0.066 0.778 0 2.593-2.138 4.704-4.766 4.704-2.629 0-4.765-2.111-4.765-4.704 0-2.595 2.137-4.704 4.765-4.704zM14.282 22.259c0.617 0 1.118 0.494 1.118 1.103s-0.501 1.103-1.118 1.103h-9.165c-0.617 0-1.118-0.494-1.118-1.103s0.501-1.103 1.118-1.103h9.165zM8.766 4c2.629 0 4.766 2.109 4.766 4.704 0 2.593-2.137 4.704-4.766 4.704s-4.766-2.111-4.766-4.704c0-0.265 0.022-0.525 0.066-0.778 0.101-0.602 0.671-1.003 1.286-0.908 0.608 0.101 1.021 0.669 0.918 1.271-0.022 0.134-0.034 0.274-0.034 0.415 0 1.377 1.134 2.498 2.53 2.498s2.53-1.121 2.53-2.498c0-1.378-1.134-2.498-2.53-2.498-0.191 0-0.382 0.021-0.563 0.062-0.604 0.143-1.203-0.231-1.343-0.824s0.234-1.187 0.836-1.324c0.349-0.081 0.708-0.121 1.070-0.121zM28.215 7.6c0.617 0 1.118 0.494 1.118 1.103s-0.501 1.103-1.118 1.103h-9.163c-0.617 0-1.118-0.494-1.118-1.103s0.501-1.103 1.118-1.103h9.163z"></path>
</symbol>
<symbol id="getwash" viewBox="0 0 167 32">
<path d="M15.585 12.994h6.909c1.413 0.052 2.277 0.419 2.591 1.099 0.262 0.497 0.393 1.23 0.393 2.198v8.637c0 0.838-0.366 1.636-1.099 2.395-2.198 2.277-5.496 3.415-9.893 3.415-3.899 0-7.289-1.466-10.168-4.397-2.879-2.957-4.318-6.517-4.318-10.678s1.466-7.629 4.397-10.403c2.931-2.8 6.386-4.201 10.364-4.201 3.088 0 6.006 1.021 8.754 3.062 0.707 0.523 1.060 1.112 1.060 1.767 0 0.628-0.301 1.361-0.903 2.198-1.021 1.387-1.95 2.081-2.787 2.081-0.497 0-1.296-0.353-2.395-1.060-1.099-0.733-2.408-1.099-3.926-1.099-1.989 0-3.756 0.707-5.3 2.12-1.544 1.387-2.316 3.219-2.316 5.496 0 2.251 0.785 4.174 2.355 5.771 1.57 1.57 3.35 2.355 5.339 2.355 1.439 0 2.735-0.236 3.886-0.706v-4.279h-3.101c-0.811 0-1.387-0.105-1.727-0.314s-0.563-0.51-0.667-0.903c-0.105-0.419-0.157-0.968-0.157-1.649 0-0.707 0.052-1.269 0.157-1.688 0.131-0.419 0.353-0.707 0.667-0.864 0.471-0.236 1.099-0.353 1.884-0.353z"></path>
<path d="M48.556 17.548c0 1.597-0.406 2.787-1.217 3.572-0.785 0.759-1.662 1.138-2.63 1.138h-9.304c0 0.733 0.432 1.348 1.295 1.845s1.727 0.746 2.591 0.746c1.518 0 2.709-0.157 3.572-0.471l0.432-0.157c0.628-0.288 1.152-0.432 1.57-0.432 0.837 0 1.557 0.589 2.159 1.767 0.34 0.707 0.51 1.309 0.51 1.806 0 2.329-2.787 3.494-8.362 3.494-1.937 0-3.664-0.327-5.182-0.981-1.492-0.68-2.656-1.57-3.494-2.669-1.649-2.12-2.473-4.488-2.473-7.106 0-3.298 1.060-5.928 3.18-7.891 2.146-1.989 4.815-2.984 8.008-2.984 3.638 0 6.307 1.282 8.008 3.847 0.89 1.361 1.335 2.853 1.335 4.475zM40.273 18.686c0.995 0 1.492-0.419 1.492-1.256 0-0.602-0.236-1.086-0.707-1.453-0.445-0.366-1.099-0.55-1.963-0.55-0.838 0-1.675 0.353-2.512 1.060-0.838 0.68-1.256 1.413-1.256 2.198h4.947z"></path>
<path d="M62.746 16.606l-2.552-0.157v5.418c0 0.707 0.105 1.217 0.314 1.531 0.236 0.314 0.654 0.471 1.256 0.471 0.628 0 1.099 0.026 1.413 0.078 0.34 0.026 0.694 0.144 1.060 0.353 0.602 0.34 0.903 1.217 0.903 2.63 0 1.649-0.366 2.656-1.099 3.023-0.393 0.183-0.746 0.301-1.060 0.353-0.288 0.026-0.72 0.039-1.295 0.039-2.722 0-4.789-0.615-6.203-1.845s-2.12-3.311-2.12-6.242v-5.81c-0.497 0.079-1.034 0.118-1.61 0.118s-1.060-0.222-1.453-0.667c-0.366-0.445-0.55-1.204-0.55-2.277s0.065-1.845 0.196-2.316c0.131-0.497 0.314-0.851 0.55-1.060 0.419-0.34 0.942-0.51 1.57-0.51l1.295 0.157v-4.043c0-0.602 0.013-1.047 0.039-1.335 0.052-0.288 0.183-0.602 0.393-0.942 0.34-0.654 1.348-0.981 3.023-0.981 1.78 0 2.84 0.484 3.18 1.453 0.131 0.419 0.196 1.086 0.196 2.002v3.847c1.152-0.105 2.015-0.157 2.591-0.157 0.602 0 1.047 0.026 1.335 0.079 0.314 0.026 0.667 0.144 1.060 0.353 0.68 0.34 1.021 1.348 1.021 3.023 0 1.649-0.353 2.656-1.060 3.023-0.393 0.183-0.746 0.301-1.060 0.353-0.288 0.026-0.733 0.039-1.335 0.039z"></path>
<path d="M101.724 1.727c1.753 0.628 2.63 1.466 2.63 2.512 0 0.34-0.157 0.981-0.471 1.924l-7.537 21.788c-0.052 0.183-0.144 0.406-0.275 0.667s-0.484 0.615-1.060 1.060c-0.55 0.419-1.217 0.628-2.002 0.628-0.759 0-1.426-0.209-2.002-0.628-0.55-0.445-0.916-0.877-1.099-1.296l-4.593-13.544c-2.905 8.584-4.384 12.955-4.436 13.112s-0.17 0.379-0.353 0.667c-0.183 0.288-0.393 0.55-0.628 0.785-0.602 0.602-1.322 0.903-2.159 0.903s-1.531-0.196-2.081-0.589c-0.523-0.393-0.877-0.785-1.060-1.178l-0.275-0.589-7.577-21.788c-0.288-0.864-0.432-1.505-0.432-1.924 0-1.047 0.877-1.871 2.63-2.473 0.759-0.262 1.439-0.393 2.041-0.393 0.628 0 1.099 0.209 1.413 0.628 0.34 0.419 0.641 1.060 0.903 1.924l4.318 13.112 4.279-12.916c0.366-1.099 1.034-1.858 2.002-2.277 0.419-0.183 0.955-0.275 1.609-0.275 0.68 0 1.309 0.222 1.884 0.667 0.576 0.419 0.942 0.837 1.099 1.256l4.514 13.622 4.318-13.19c0.209-0.602 0.379-1.047 0.51-1.335s0.366-0.563 0.707-0.824c0.366-0.288 0.811-0.432 1.335-0.432s1.138 0.131 1.845 0.393z"></path>
<path d="M117.18 11.856c0.157-1.466 1.191-2.198 3.101-2.198 1.021 0 1.78 0.079 2.277 0.236s0.837 0.432 1.021 0.824c0.209 0.393 0.327 0.746 0.353 1.060 0.052 0.288 0.079 0.733 0.079 1.335v13.74c0 0.602-0.026 1.060-0.079 1.374-0.026 0.288-0.131 0.628-0.314 1.021-0.366 0.68-1.269 1.021-2.709 1.021-1.413 0-2.369-0.17-2.866-0.51-0.471-0.366-0.746-0.89-0.824-1.57-0.968 1.387-2.591 2.081-4.868 2.081-2.251 0-4.344-1.034-6.281-3.101s-2.905-4.462-2.905-7.184c0-2.748 0.968-5.143 2.905-7.184 1.963-2.068 4.109-3.101 6.438-3.101 0.89 0 1.701 0.157 2.434 0.471s1.243 0.615 1.531 0.903c0.288 0.262 0.523 0.523 0.707 0.785zM110.035 20.021c0 0.864 0.34 1.649 1.021 2.355 0.68 0.68 1.505 1.021 2.473 1.021s1.767-0.353 2.395-1.060c0.654-0.707 0.981-1.479 0.981-2.316 0-0.864-0.314-1.662-0.942-2.395-0.602-0.733-1.426-1.099-2.473-1.099-1.021 0-1.858 0.366-2.513 1.099-0.628 0.733-0.942 1.531-0.942 2.395z"></path>
<path d="M127.297 28.501c-0.497-0.314-0.746-0.811-0.746-1.492s0.497-1.714 1.492-3.101c0.288-0.445 0.746-0.667 1.374-0.667 0.654 0 1.531 0.327 2.63 0.981 1.099 0.628 2.094 0.942 2.983 0.942 1.597 0 2.395-0.314 2.395-0.942 0-0.497-0.877-0.864-2.63-1.099-1.649-0.236-3.284-0.851-4.907-1.845-0.759-0.471-1.387-1.204-1.884-2.198-0.497-1.021-0.746-2.225-0.746-3.612 0-4.135 2.84-6.203 8.519-6.203 1.858 0 3.769 0.445 5.732 1.335 0.915 0.419 1.373 0.942 1.373 1.57s-0.288 1.4-0.863 2.316c-0.576 0.916-1.166 1.374-1.767 1.374-0.314 0-0.903-0.196-1.767-0.589-0.837-0.393-1.753-0.589-2.748-0.589-1.544 0-2.316 0.288-2.316 0.864 0 0.785 0.89 1.295 2.669 1.531 1.727 0.183 3.402 0.68 5.026 1.492 0.758 0.366 1.386 1.008 1.884 1.924 0.523 0.89 0.785 2.015 0.785 3.376s-0.262 2.526-0.785 3.494c-0.498 0.942-1.203 1.649-2.12 2.12-1.675 0.811-3.781 1.217-6.32 1.217-2.512 0-4.933-0.733-7.262-2.198z"></path>
<path d="M157.81 9.736c2.617 0 4.789 0.995 6.517 2.984 1.753 1.989 2.63 4.423 2.63 7.302v6.909c0 0.602-0.026 1.060-0.078 1.374-0.026 0.288-0.145 0.628-0.353 1.021-0.341 0.68-1.348 1.021-3.023 1.021-1.596 0-2.591-0.34-2.983-1.021-0.21-0.392-0.341-0.746-0.394-1.060-0.025-0.314-0.039-0.785-0.039-1.413v-6.87c0-1.073-0.301-1.911-0.903-2.512-0.601-0.602-1.373-0.903-2.317-0.903-0.915 0-1.727 0.288-2.433 0.864-0.707 0.55-1.112 1.178-1.217 1.884v7.616c0 0.602-0.025 1.060-0.078 1.374-0.026 0.288-0.145 0.628-0.353 1.021-0.341 0.68-1.348 1.021-3.023 1.021-1.649 0-2.656-0.353-3.022-1.060-0.184-0.392-0.302-0.733-0.353-1.021-0.026-0.288-0.039-0.746-0.039-1.374v-23.476c0-0.602 0.013-1.047 0.039-1.335 0.051-0.314 0.17-0.654 0.353-1.021 0.366-0.707 1.387-1.060 3.062-1.060 1.649 0 2.642 0.353 2.983 1.060 0.209 0.393 0.327 0.746 0.353 1.060 0.053 0.288 0.078 0.733 0.078 1.335v8.676c1.309-1.596 2.84-2.395 4.594-2.395z"></path>
</symbol>
<symbol id="location" viewBox="0 0 32 32">
<path d="M16.044 2.667c6.248 0.025 11.313 5.123 11.289 11.363v0.124c-0.084 4.46-2.765 8.16-4.999 10.479-0.636 0.663-1.312 1.299-2.010 1.893-0.418 0.357-1.046 0.308-1.403-0.11-0.357-0.419-0.307-1.045 0.111-1.402 0.646-0.551 1.275-1.142 1.866-1.759 1.988-2.063 4.372-5.324 4.444-9.138 0.020-5.24-4.154-9.443-9.307-9.464h-0.036c-5.135 0-9.323 4.163-9.343 9.295 0.088 2.535 0.945 4.945 2.48 6.967 1.791 2.385 4.509 4.911 7.091 6.592 0.461 0.299 0.591 0.914 0.29 1.375-0.19 0.292-0.509 0.451-0.835 0.451-0.186 0-0.373-0.051-0.542-0.161-2.765-1.8-5.676-4.505-7.595-7.060-1.781-2.347-2.777-5.147-2.88-8.095 0.025-6.302 5.105-11.35 11.333-11.35h0.045zM15.996 9.845c2.378 0 4.313 1.932 4.313 4.308 0 2.375-1.935 4.306-4.313 4.306s-4.313-1.932-4.313-4.306c0-0.55 0.446-0.994 0.995-0.994s0.995 0.444 0.995 0.994c0 1.278 1.042 2.32 2.323 2.32s2.323-1.042 2.323-2.32c0-1.279-1.042-2.321-2.323-2.321-0.549 0-0.995-0.444-0.995-0.993 0-0.55 0.446-0.994 0.995-0.994z"></path>
</symbol>
<symbol id="right" viewBox="0 0 32 32">
<path fill="#446df6" style="fill: var(--color3, #446df6)" d="M16 32c-8.837 0-16-7.163-16-16s7.163-16 16-16c8.837 0 16 7.163 16 16s-7.163 16-16 16z"></path>
<path fill="none" stroke="#eee" style="stroke: var(--color4, #eee)" stroke-linejoin="round" stroke-linecap="round" stroke-miterlimit="4" stroke-width="1.28" d="M15.040 19.2l3.2-3.2-3.2-3.2"></path>
</symbol>
<symbol id="star" viewBox="0 0 32 32">
<path d="M23.331 29.226c-0.164 0.004-0.327-0.037-0.469-0.12l-6.851-3.608-6.032 3.248c-0.984 0.533-2.216 0.168-2.749-0.817-0.007-0.012-0.013-0.024-0.020-0.037-0.209-0.412-0.283-0.877-0.211-1.333l1.173-6.925-4.904-4.965c-0.801-0.827-0.801-2.141 0-2.969 0.312-0.328 0.725-0.54 1.173-0.601l6.724-1.021 2.991-6.231c0.465-1.013 1.664-1.459 2.679-0.993 0.44 0.201 0.792 0.555 0.993 0.993l3.004 6.252 6.747 1.033c0.545 0.081 1.035 0.383 1.355 0.832 0.597 0.859 0.507 2.019-0.216 2.775l-4.881 4.907 0.68 3.732c0.095 0.56-0.275 1.095-0.833 1.2-0.549 0.099-1.075-0.267-1.173-0.817l-0.692-3.732c-0.116-0.684 0.101-1.383 0.587-1.877l4.893-4.941-6.747-1.047c-0.684-0.111-1.264-0.564-1.537-1.2l-3.003-6.225-3.040 6.324c-0.273 0.637-0.853 1.089-1.537 1.2l-6.724 1.021 4.857 4.933c0.484 0.487 0.701 1.176 0.587 1.852l-1.173 6.925 6.031-3.235c0.597-0.336 1.327-0.336 1.924 0l6.841 3.608c0.417 0.228 0.629 0.709 0.516 1.172-0.104 0.463-0.512 0.792-0.985 0.8l0.024-0.111z"></path>
</symbol>
<symbol id="wallet" viewBox="0 0 32 32">
<path d="M21.619 3.333c4.254 0 7.714 3.54 7.714 7.892v9.549c0 4.352-3.461 7.892-7.714 7.892-0.491 0-0.889-0.407-0.889-0.91s0.398-0.909 0.889-0.909c3.273 0 5.937-2.724 5.937-6.073v-7.621h-4.378c-1.438 0.001-2.61 1.199-2.611 2.671 0.001 1.472 1.173 2.67 2.611 2.671h1.819c0.491 0 0.889 0.407 0.889 0.909s-0.398 0.91-0.889 0.91h-1.819c-2.419-0.001-4.388-2.015-4.389-4.49 0.001-2.475 1.97-4.489 4.389-4.491h4.378v-0.109c0-3.349-2.663-6.073-5.937-6.073h-11.239c-2.638 0-4.852 1.78-5.624 4.219h11.717c0.491 0 0.889 0.407 0.889 0.909 0 0.503-0.398 0.909-0.889 0.909h-12.025l-0.004 0.035v9.55c0 3.349 2.662 6.073 5.935 6.073h5.655c0.491 0 0.889 0.407 0.889 0.909s-0.398 0.91-0.889 0.91h-5.655c-4.254 0-7.713-3.54-7.713-7.892v-9.55c0-4.352 3.46-7.892 7.713-7.892h11.239zM23.774 14.833c0.491 0 0.889 0.407 0.889 0.909s-0.398 0.909-0.889 0.909h-0.404c-0.491 0-0.889-0.407-0.889-0.909s0.398-0.909 0.889-0.909h0.404z"></path>
</symbol>
</defs>
</svg>
